<?xml version="1.0" standalone="no"?>
<!DOCTYPE svg PUBLIC "-//W3C//DTD SVG 20010904//EN"
 "http://www.w3.org/TR/2001/REC-SVG-20010904/DTD/svg10.dtd">
<svg version="1.0" xmlns="http://www.w3.org/2000/svg"
 width="540.000000pt" height="432.000000pt" viewBox="0 0 540.000000 432.000000"
 preserveAspectRatio="xMidYMid meet">

<g transform="translate(0.000000,432.000000) scale(0.100000,-0.100000)"
fill="#000000" stroke="none">
<path d="M1913 4161 c-43 -11 -107 -45 -161 -86 l-45 -35 -224 0 c-247 0 -265
-3 -320 -61 -40 -43 -53 -77 -53 -140 0 -78 35 -136 103 -171 35 -17 60 -19
245 -19 114 0 224 -5 244 -10 20 -5 48 -23 62 -40 24 -28 26 -38 26 -129 0
-109 0 -110 -73 -110 -77 -1 -161 -56 -186 -123 -15 -40 -14 -119 4 -160 8
-19 37 -54 65 -77 l51 -42 -3 -136 -3 -136 -70 -11 c-89 -14 -128 -35 -163
-87 -25 -38 -27 -51 -31 -155 l-3 -113 41 -38 c32 -29 41 -45 41 -70 0 -71
-65 -167 -230 -338 -255 -266 -376 -487 -446 -814 -18 -83 -31 -480 -19 -577
11 -87 45 -118 165 -145 83 -19 124 -22 320 -22 200 -1 234 2 304 21 130 36
155 65 156 178 1 150 38 343 96 496 43 114 36 113 150 27 54 -41 122 -87 149
-102 120 -66 270 -115 430 -141 54 -8 95 -21 107 -32 11 -10 38 -54 60 -98
130 -258 332 -448 553 -518 160 -52 199 -57 397 -57 122 0 223 5 274 14 347
61 643 347 774 746 67 204 75 258 75 505 -1 203 -3 229 -27 333 -69 290 -182
499 -362 670 -140 133 -265 201 -439 238 -81 17 -425 19 -527 4 -190 -29 -329
-96 -469 -225 -86 -80 -159 -181 -241 -333 -40 -72 -75 -132 -79 -132 -15 0
-61 57 -80 100 -43 95 -18 204 59 258 21 15 44 40 51 55 16 38 7 203 -14 243
-36 70 -102 105 -222 116 l-30 3 -3 110 c-4 137 6 174 55 206 50 32 74 77 80
147 9 115 -66 198 -193 210 l-69 7 0 115 0 114 32 22 c30 20 49 22 270 29 249
8 270 11 314 58 32 33 59 97 59 142 0 53 -35 121 -83 159 l-39 31 -243 5 -243
5 -44 33 c-86 65 -143 86 -248 89 -52 1 -109 -2 -127 -6z m223 -133 c47 -21
99 -74 115 -115 5 -13 9 -48 9 -77 0 -117 -105 -203 -244 -199 -90 2 -149 32
-193 97 -56 83 -54 160 8 231 81 92 194 116 305 63z m-491 -183 l0 -70 -170
-3 c-108 -2 -179 2 -196 9 -35 14 -55 59 -40 88 26 48 44 52 231 49 l175 -3 0
-70z m1146 46 c28 -34 24 -75 -8 -100 -25 -20 -36 -21 -207 -19 l-181 3 -3 58
c-5 90 -8 89 201 85 174 -3 179 -4 198 -27z m-667 -397 c12 -30 6 -111 -8
-123 -9 -8 -46 -11 -103 -9 l-88 3 -3 59 c-5 87 -6 86 102 86 76 0 95 -3 100
-16z m256 -284 c26 -26 26 -70 0 -98 -21 -22 -24 -22 -354 -22 -309 0 -335 1
-356 18 -28 23 -30 75 -4 103 16 18 36 19 356 19 325 0 339 -1 358 -20z m-125
-390 l0 -135 -235 0 -235 0 -3 124 c-1 69 0 131 2 138 4 11 52 13 238 11 l233
-3 0 -135z m260 -295 c25 -24 33 -76 17 -103 -7 -10 -116 -12 -513 -10 l-504
3 -3 46 c-3 41 1 50 24 68 26 21 34 21 491 21 l464 0 24 -25z m1173 -65 c182
-50 338 -163 460 -331 89 -123 181 -341 213 -504 18 -91 18 -456 0 -540 -15
-72 -46 -180 -72 -253 -68 -188 -223 -387 -386 -495 -274 -182 -612 -148 -859
86 -46 43 -101 102 -121 130 -55 74 -132 200 -128 208 3 3 30 9 62 12 90 10
146 34 204 88 l54 49 187 0 c164 0 194 3 242 20 69 26 127 84 166 165 41 85
53 154 47 255 -10 171 -96 313 -214 356 -27 9 -96 13 -230 14 l-193 0 -55 50
c-72 65 -113 82 -205 85 -94 3 -90 2 -90 21 0 23 72 162 118 228 49 72 141
169 212 225 168 133 397 184 588 131z m502 -105 c214 -137 391 -441 451 -774
58 -319 -25 -716 -208 -993 -73 -111 -293 -300 -334 -286 -6 2 15 32 47 67 78
84 133 158 181 245 151 270 216 641 168 961 -45 296 -148 529 -327 735 -43 49
-78 92 -78 94 0 10 35 -7 100 -49z m-1772 -84 c11 -7 11 -19 -3 -70 -30 -106
-4 -229 69 -328 34 -46 58 -67 115 -97 67 -35 79 -38 190 -45 155 -9 180 -24
240 -141 38 -73 54 -154 54 -275 1 -151 -35 -271 -104 -350 -44 -50 -83 -65
-171 -65 -260 1 -514 65 -680 172 -80 51 -198 147 -198 160 0 6 11 21 25 34
50 46 15 126 -49 110 -71 -18 -214 -253 -257 -421 -19 -77 -51 -273 -65 -401
-3 -34 -10 -67 -14 -73 -10 -17 -144 -40 -270 -47 -74 -5 -140 -2 -225 10
-136 19 -172 30 -180 56 -3 10 -6 108 -7 217 -1 302 33 460 144 676 64 124
139 226 260 353 213 224 285 334 295 455 3 35 11 67 17 71 15 11 798 10 814
-1z m1104 -699 c90 -56 135 -246 89 -376 -24 -69 -61 -120 -102 -141 -42 -22
-335 -18 -332 5 2 8 10 49 19 90 18 85 14 302 -7 377 -20 75 -19 75 149 71
133 -3 151 -5 184 -26z"/>
</g>
</svg>
